STARTFONT 2.1
FONT -AmsteinGraphics-DMCP-Bold-R-Normal--34-340-36-38-P-81-ISO10646-1
SIZE 5 173 173
FONTBOUNDINGBOX 10 21 0 -4
STARTPROPERTIES 30
FAMILY_NAME "DMCP"
DEFAULT_CHAR -1
FOUNDRY "AmsteinGraphics"
COPYRIGHT "Copyright (c) 2022 SwissMicros"
CODEPAGE "MS Windows 1252 Western (ANSI)"
ENC_MODE 2
ENC_ID 1
CREATION_YEAR 2022
WEIGHT_NAME "Bold"
SLANT "R"
SETWIDTH_NAME "Normal"
SPACING "P"
WEIGHT 700
HI_VERSION 1
MAC_FONT_STYLE 1
CP_RANGE_1 65535
CP_RANGE_2 65535
FONTNAME_REGISTRY "-"
CHARSET_REGISTRY "ISO10646"
CHARSET_ENCODING "1"
BREAK_CHAR 32
PIXEL_SIZE 12
POINT_SIZE 50
FONT_ASCENT 14
FONT_DESCENT 4
RESOLUTION_X 173
RESOLUTION_Y 173
AVERAGE_WIDTH 81
X_HEIGHT 10
CAP_HEIGHT 13
ENDPROPERTIES
CHARS 289
STARTCHAR space.uni0020
ENCODING 32
SWIDTH 557 0
DWIDTH 10 0
BBX 0 0 0 0
BITMAP
ENDCHAR
STARTCHAR exclam.uni0021
ENCODING 33
SWIDTH 557 0
DWIDTH 10 0
BBX 3 13 4 0
BITMAP
E000
E000
E000
E000
E000
E000
E000
E000
E000
0000
0000
E000
E000
ENDCHAR
STARTCHAR quotedbl.uni0022
ENCODING 34
SWIDTH 557 0
DWIDTH 10 0
BBX 6 5 2 8
BITMAP
CC00
CC00
CC00
CC00
CC00
ENDCHAR
STARTCHAR numbersign.uni0023
ENCODING 35
SWIDTH 557 0
DWIDTH 10 0
BBX 10 12 0 0
BITMAP
1980
1980
1980
7FC0
7FC0
3300
3300
FF80
FF80
6600
6600
6600
ENDCHAR
STARTCHAR dollar.uni0024
ENCODING 36
SWIDTH 557 0
DWIDTH 10 0
BBX 7 17 2 -3
BITMAP
1000
1000
7800
FC00
D400
D000
F000
F800
7C00
1E00
1600
9600
FE00
7C00
1000
1000
1000
ENDCHAR
STARTCHAR percent.uni0025
ENCODING 37
SWIDTH 557 0
DWIDTH 10 0
BBX 10 13 0 0
BITMAP
7000
D800
D800
D800
D800
7180
0E00
7380
06C0
06C0
06C0
06C0
0380
ENDCHAR
STARTCHAR ampersand.uni0026
ENCODING 38
SWIDTH 557 0
DWIDTH 10 0
BBX 10 13 0 0
BITMAP
1E00
3F00
3900
3800
1C00
3C00
7EC0
E6C0
E7C0
E380
F380
7F80
3FC0
ENDCHAR
STARTCHAR quotesingle.uni0027
ENCODING 39
SWIDTH 557 0
DWIDTH 10 0
BBX 2 5 4 8
BITMAP
C000
C000
C000
C000
C000
ENDCHAR
STARTCHAR parenleft.uni0028
ENCODING 40
SWIDTH 557 0
DWIDTH 10 0
BBX 4 16 3 -2
BITMAP
1000
3000
6000
6000
6000
E000
E000
E000
E000
E000
E000
6000
6000
6000
3000
1000
ENDCHAR
STARTCHAR parenright.uni0029
ENCODING 41
SWIDTH 557 0
DWIDTH 10 0
BBX 4 16 4 -2
BITMAP
8000
C000
6000
6000
6000
7000
7000
7000
7000
7000
7000
6000
6000
6000
C000
8000
ENDCHAR
STARTCHAR asterisk.uni002A
ENCODING 42
SWIDTH 557 0
DWIDTH 10 0
BBX 7 8 1 5
BITMAP
1000
9200
FE00
3800
3800
FE00
9200
1000
ENDCHAR
STARTCHAR plus.uni002B
ENCODING 43
SWIDTH 557 0
DWIDTH 10 0
BBX 10 10 0 1
BITMAP
0C00
0C00
0C00
0C00
FFC0
FFC0
0C00
0C00
0C00
0C00
ENDCHAR
STARTCHAR comma.uni002C
ENCODING 44
SWIDTH 557 0
DWIDTH 10 0
BBX 4 6 3 -3
BITMAP
7000
7000
7000
6000
E000
C000
ENDCHAR
STARTCHAR hyphen.uni002D
ENCODING 45
SWIDTH 557 0
DWIDTH 10 0
BBX 5 3 3 4
BITMAP
F800
F800
F800
ENDCHAR
STARTCHAR period.uni002E
ENCODING 46
SWIDTH 557 0
DWIDTH 10 0
BBX 3 3 4 0
BITMAP
E000
E000
E000
ENDCHAR
STARTCHAR slash.uni002F
ENCODING 47
SWIDTH 557 0
DWIDTH 10 0
BBX 9 16 1 -2
BITMAP
0180
0180
0300
0300
0600
0600
0C00
0C00
1800
1800
3000
3000
6000
6000
C000
C000
ENDCHAR
STARTCHAR zero.uni0030
ENCODING 48
SWIDTH 557 0
DWIDTH 10 0
BBX 8 13 1 0
BITMAP
3C00
7E00
6600
E700
EF00
EF00
FF00
F700
F700
E700
6600
7E00
3C00
ENDCHAR
STARTCHAR one.uni0031
ENCODING 49
SWIDTH 557 0
DWIDTH 10 0
BBX 9 13 1 0
BITMAP
3C00
FC00
DC00
1C00
1C00
1C00
1C00
1C00
1C00
1C00
1C00
FF80
FF80
ENDCHAR
STARTCHAR two.uni0032
ENCODING 50
SWIDTH 557 0
DWIDTH 10 0
BBX 8 13 1 0
BITMAP
7C00
FE00
8700
0700
0700
0E00
0E00
1C00
3800
7000
E000
FF00
FF00
ENDCHAR
STARTCHAR three.uni0033
ENCODING 51
SWIDTH 557 0
DWIDTH 10 0
BBX 8 13 1 0
BITMAP
7C00
FE00
8700
0700
0700
3C00
3E00
0F00
0700
0700
8F00
FE00
7C00
ENDCHAR
STARTCHAR four.uni0034
ENCODING 52
SWIDTH 557 0
DWIDTH 10 0
BBX 8 13 1 0
BITMAP
0E00
0E00
1E00
3E00
3E00
6E00
6E00
CE00
FF00
FF00
0E00
0E00
0E00
ENDCHAR
STARTCHAR five.uni0035
ENCODING 53
SWIDTH 557 0
DWIDTH 10 0
BBX 8 13 1 0
BITMAP
FE00
FE00
E000
E000
FC00
FE00
8F00
0700
0700
0700
8F00
FE00
7C00
ENDCHAR
STARTCHAR six.uni0036
ENCODING 54
SWIDTH 557 0
DWIDTH 10 0
BBX 8 13 1 0
BITMAP
3C00
7E00
7200
E000
EE00
FE00
E700
E700
E700
E700
6700
7E00
3C00
ENDCHAR
STARTCHAR seven.uni0037
ENCODING 55
SWIDTH 557 0
DWIDTH 10 0
BBX 8 13 1 0
BITMAP
FF00
FF00
0300
0600
0600
0C00
0C00
1C00
1800
1800
3000
3000
6000
ENDCHAR
STARTCHAR eight.uni0038
ENCODING 56
SWIDTH 557 0
DWIDTH 10 0
BBX 8 13 1 0
BITMAP
3C00
7E00
E700
E700
E700
3C00
3C00
E700
E700
E700
E700
7E00
3C00
ENDCHAR
STARTCHAR nine.uni0039
ENCODING 57
SWIDTH 557 0
DWIDTH 10 0
BBX 8 13 1 0
BITMAP
3C00
7E00
E600
E700
E700
E700
E700
7F00
7F00
0700
4E00
7E00
3C00
ENDCHAR
STARTCHAR colon.uni003A
ENCODING 58
SWIDTH 557 0
DWIDTH 10 0
BBX 3 9 4 0
BITMAP
E000
E000
E000
0000
0000
0000
E000
E000
E000
ENDCHAR
STARTCHAR semicolon.uni003B
ENCODING 59
SWIDTH 557 0
DWIDTH 10 0
BBX 4 12 3 -3
BITMAP
7000
7000
7000
0000
0000
0000
7000
7000
7000
6000
E000
C000
ENDCHAR
STARTCHAR less.uni003C
ENCODING 60
SWIDTH 557 0
DWIDTH 10 0
BBX 9 9 1 1
BITMAP
0080
0780
1F00
F800
C000
F800
1F00
0780
0080
ENDCHAR
STARTCHAR equal.uni003D
ENCODING 61
SWIDTH 557 0
DWIDTH 10 0
BBX 9 6 1 3
BITMAP
FF80
FF80
0000
0000
FF80
FF80
ENDCHAR
STARTCHAR greater.uni003E
ENCODING 62
SWIDTH 557 0
DWIDTH 10 0
BBX 9 9 1 1
BITMAP
8000
F000
7C00
0F80
0180
0F80
7C00
F000
8000
ENDCHAR
STARTCHAR question.uni003F
ENCODING 63
SWIDTH 557 0
DWIDTH 10 0
BBX 7 13 2 0
BITMAP
7C00
FE00
8E00
0E00
0C00
1800
3000
3800
3800
3800
0000
3800
3800
ENDCHAR
STARTCHAR at.uni0040
ENCODING 64
SWIDTH 557 0
DWIDTH 10 0
BBX 10 15 0 -3
BITMAP
0F00
3F80
71C0
60C0
E7C0
CFC0
CCC0
CCC0
CCC0
CFC0
E7C0
6000
7080
3FC0
0F80
ENDCHAR
STARTCHAR A.uni0041
ENCODING 65
SWIDTH 557 0
DWIDTH 10 0
BBX 8 13 1 0
BITMAP
1800
3C00
3C00
3C00
3C00
2400
6600
6600
7E00
7E00
6600
E700
E700
ENDCHAR
STARTCHAR B.uni0042
ENCODING 66
SWIDTH 557 0
DWIDTH 10 0
BBX 8 13 1 0
BITMAP
FE00
FF00
E700
E700
E700
FE00
FE00
E700
E700
E700
E700
FF00
FE00
ENDCHAR
STARTCHAR C.uni0043
ENCODING 67
SWIDTH 557 0
DWIDTH 10 0
BBX 8 13 1 0
BITMAP
1E00
3F00
7100
E000
E000
E000
E000
E000
E000
E000
7100
3F00
1E00
ENDCHAR
STARTCHAR D.uni0044
ENCODING 68
SWIDTH 557 0
DWIDTH 10 0
BBX 8 13 1 0
BITMAP
FC00
FE00
EE00
E700
E700
E700
E700
E700
E700
E700
EE00
FE00
FC00
ENDCHAR
STARTCHAR E.uni0045
ENCODING 69
SWIDTH 557 0
DWIDTH 10 0
BBX 8 13 1 0
BITMAP
FF00
FF00
E000
E000
E000
FE00
FE00
E000
E000
E000
E000
FF00
FF00
ENDCHAR
STARTCHAR F.uni0046
ENCODING 70
SWIDTH 557 0
DWIDTH 10 0
BBX 8 13 1 0
BITMAP
FF00
FF00
E000
E000
E000
FE00
FE00
E000
E000
E000
E000
E000
E000
ENDCHAR
STARTCHAR G.uni0047
ENCODING 71
SWIDTH 557 0
DWIDTH 10 0
BBX 8 13 1 0
BITMAP
1E00
7F00
7100
E000
E000
E000
EF00
EF00
E700
E700
7700
7F00
1E00
ENDCHAR
STARTCHAR H.uni0048
ENCODING 72
SWIDTH 557 0
DWIDTH 10 0
BBX 8 13 1 0
BITMAP
E700
E700
E700
E700
E700
FF00
FF00
E700
E700
E700
E700
E700
E700
ENDCHAR
STARTCHAR I.uni0049
ENCODING 73
SWIDTH 557 0
DWIDTH 10 0
BBX 7 13 2 0
BITMAP
FE00
FE00
3800
3800
3800
3800
3800
3800
3800
3800
3800
FE00
FE00
ENDCHAR
STARTCHAR J.uni004A
ENCODING 74
SWIDTH 557 0
DWIDTH 10 0
BBX 8 13 1 0
BITMAP
3F00
3F00
0700
0700
0700
0700
0700
0700
0700
0700
CF00
FE00
7C00
ENDCHAR
STARTCHAR K.uni004B
ENCODING 75
SWIDTH 557 0
DWIDTH 10 0
BBX 9 13 1 0
BITMAP
E380
E700
E700
EE00
EC00
FC00
FC00
FE00
E600
E700
E700
E380
E380
ENDCHAR
STARTCHAR L.uni004C
ENCODING 76
SWIDTH 557 0
DWIDTH 10 0
BBX 8 13 1 0
BITMAP
E000
E000
E000
E000
E000
E000
E000
E000
E000
E000
E000
FF00
FF00
ENDCHAR
STARTCHAR M.uni004D
ENCODING 77
SWIDTH 557 0
DWIDTH 10 0
BBX 8 13 1 0
BITMAP
C300
E700
E700
E700
FF00
FF00
FF00
FF00
E700
E700
E700
E700
E700
ENDCHAR
STARTCHAR N.uni004E
ENCODING 78
SWIDTH 557 0
DWIDTH 10 0
BBX 8 13 1 0
BITMAP
E700
E700
F700
F700
F700
F700
FF00
EF00
EF00
EF00
EF00
E700
E700
ENDCHAR
STARTCHAR O.uni004F
ENCODING 79
SWIDTH 557 0
DWIDTH 10 0
BBX 8 13 1 0
BITMAP
3C00
7E00
6600
E700
E700
E700
E700
E700
E700
E700
6600
7E00
3C00
ENDCHAR
STARTCHAR P.uni0050
ENCODING 80
SWIDTH 557 0
DWIDTH 10 0
BBX 8 13 1 0
BITMAP
FC00
FE00
E700
E700
E700
E700
FE00
FC00
E000
E000
E000
E000
E000
ENDCHAR
STARTCHAR Q.uni0051
ENCODING 81
SWIDTH 557 0
DWIDTH 10 0
BBX 8 15 1 -2
BITMAP
3C00
7E00
6600
E700
E700
E700
E700
E700
E700
E700
6600
7E00
3C00
0E00
0400
ENDCHAR
STARTCHAR R.uni0052
ENCODING 82
SWIDTH 557 0
DWIDTH 10 0
BBX 9 13 1 0
BITMAP
FC00
FE00
E700
E700
E700
E700
FE00
FC00
EE00
E600
E700
E300
E380
ENDCHAR
STARTCHAR S.uni0053
ENCODING 83
SWIDTH 557 0
DWIDTH 10 0
BBX 8 13 1 0
BITMAP
3C00
7E00
E200
E000
F000
7C00
3E00
0F00
0700
0700
C700
FE00
7C00
ENDCHAR
STARTCHAR T.uni0054
ENCODING 84
SWIDTH 557 0
DWIDTH 10 0
BBX 9 13 1 0
BITMAP
FF80
FF80
1C00
1C00
1C00
1C00
1C00
1C00
1C00
1C00
1C00
1C00
1C00
ENDCHAR
STARTCHAR U.uni0055
ENCODING 85
SWIDTH 557 0
DWIDTH 10 0
BBX 8 13 1 0
BITMAP
E700
E700
E700
E700
E700
E700
E700
E700
E700
E700
E700
7E00
3C00
ENDCHAR
STARTCHAR V.uni0056
ENCODING 86
SWIDTH 557 0
DWIDTH 10 0
BBX 8 13 1 0
BITMAP
E700
E700
E700
6600
6600
6600
6600
7E00
3C00
3C00
3C00
3C00
3C00
ENDCHAR
STARTCHAR W.uni0057
ENCODING 87
SWIDTH 557 0
DWIDTH 10 0
BBX 10 13 0 0
BITMAP
C0C0
C0C0
C0C0
CCC0
6D80
6D80
6D80
7F80
7F80
7380
7380
7380
7380
ENDCHAR
STARTCHAR X.uni0058
ENCODING 88
SWIDTH 557 0
DWIDTH 10 0
BBX 8 13 1 0
BITMAP
E700
6600
7E00
3C00
3C00
1800
1800
3C00
3C00
3C00
6600
6600
E700
ENDCHAR
STARTCHAR Y.uni0059
ENCODING 89
SWIDTH 557 0
DWIDTH 10 0
BBX 9 13 1 0
BITMAP
C180
C180
E380
6300
7700
3600
3E00
1C00
1C00
1C00
1C00
1C00
1C00
ENDCHAR
STARTCHAR Z.uni005A
ENCODING 90
SWIDTH 557 0
DWIDTH 10 0
BBX 8 13 1 0
BITMAP
FF00
FF00
0700
0E00
0E00
1C00
1800
3800
7000
7000
E000
FF00
FF00
ENDCHAR
STARTCHAR bracketleft.uni005B
ENCODING 91
SWIDTH 557 0
DWIDTH 10 0
BBX 5 16 4 -2
BITMAP
F800
F800
E000
E000
E000
E000
E000
E000
E000
E000
E000
E000
E000
E000
F800
F800
ENDCHAR
STARTCHAR backslash.uni005C
ENCODING 92
SWIDTH 557 0
DWIDTH 10 0
BBX 9 16 1 -2
BITMAP
C000
C000
6000
6000
3000
3000
1800
1800
0C00
0C00
0600
0600
0300
0300
0180
0180
ENDCHAR
STARTCHAR bracketright.uni005D
ENCODING 93
SWIDTH 557 0
DWIDTH 10 0
BBX 5 16 3 -2
BITMAP
F800
F800
3800
3800
3800
3800
3800
3800
3800
3800
3800
3800
3800
3800
F800
F800
ENDCHAR
STARTCHAR asciicircum.uni005E
ENCODING 94
SWIDTH 557 0
DWIDTH 10 0
BBX 9 5 0 8
BITMAP
1C00
3E00
3600
6300
C180
ENDCHAR
STARTCHAR underscore.uni005F
ENCODING 95
SWIDTH 557 0
DWIDTH 10 0
BBX 10 2 0 -4
BITMAP
FFC0
FFC0
ENDCHAR
STARTCHAR grave.uni0060
ENCODING 96
SWIDTH 557 0
DWIDTH 10 0
BBX 4 3 3 11
BITMAP
C000
6000
3000
ENDCHAR
STARTCHAR a.uni0061
ENCODING 97
SWIDTH 557 0
DWIDTH 10 0
BBX 8 10 1 0
BITMAP
3C00
7E00
4700
0700
7F00
FF00
E700
E700
FF00
7700
ENDCHAR
STARTCHAR b.uni0062
ENCODING 98
SWIDTH 557 0
DWIDTH 10 0
BBX 8 14 1 0
BITMAP
E000
E000
E000
E000
EE00
FE00
E700
E700
E700
E700
E700
E700
FE00
EE00
ENDCHAR
STARTCHAR c.uni0063
ENCODING 99
SWIDTH 557 0
DWIDTH 10 0
BBX 8 10 1 0
BITMAP
3E00
7F00
7100
E000
E000
E000
E000
7100
7F00
3E00
ENDCHAR
STARTCHAR d.uni0064
ENCODING 100
SWIDTH 557 0
DWIDTH 10 0
BBX 8 14 1 0
BITMAP
0700
0700
0700
0700
7700
7F00
E700
E700
E700
E700
E700
E700
7F00
7700
ENDCHAR
STARTCHAR e.uni0065
ENCODING 101
SWIDTH 557 0
DWIDTH 10 0
BBX 8 10 1 0
BITMAP
3C00
7E00
E700
E700
FF00
FF00
E000
F100
7F00
3E00
ENDCHAR
STARTCHAR f.uni0066
ENCODING 102
SWIDTH 557 0
DWIDTH 10 0
BBX 8 14 2 0
BITMAP
1F00
3F00
3800
3800
FF00
FF00
3800
3800
3800
3800
3800
3800
3800
3800
ENDCHAR
STARTCHAR g.uni0067
ENCODING 103
SWIDTH 557 0
DWIDTH 10 0
BBX 8 14 1 -4
BITMAP
3700
7F00
E700
E700
E700
E700
E700
E700
7F00
3700
0700
4700
7E00
3C00
ENDCHAR
STARTCHAR h.uni0068
ENCODING 104
SWIDTH 557 0
DWIDTH 10 0
BBX 8 14 1 0
BITMAP
E000
E000
E000
E000
EE00
FF00
E700
E700
E700
E700
E700
E700
E700
E700
ENDCHAR
STARTCHAR i.uni0069
ENCODING 105
SWIDTH 557 0
DWIDTH 10 0
BBX 9 15 1 0
BITMAP
1C00
1C00
1C00
0000
0000
7C00
7C00
1C00
1C00
1C00
1C00
1C00
1C00
FF80
FF80
ENDCHAR
STARTCHAR j.uni006A
ENCODING 106
SWIDTH 557 0
DWIDTH 10 0
BBX 6 19 2 -4
BITMAP
1C00
1C00
1C00
0000
0000
7C00
7C00
1C00
1C00
1C00
1C00
1C00
1C00
1C00
1C00
1C00
1C00
FC00
F800
ENDCHAR
STARTCHAR k.uni006B
ENCODING 107
SWIDTH 557 0
DWIDTH 10 0
BBX 8 14 1 0
BITMAP
E000
E000
E000
E000
E600
EE00
EC00
F800
F800
FC00
EC00
EE00
E600
E700
ENDCHAR
STARTCHAR l.uni006C
ENCODING 108
SWIDTH 557 0
DWIDTH 10 0
BBX 8 14 1 0
BITMAP
F800
F800
3800
3800
3800
3800
3800
3800
3800
3800
3800
3800
1F00
1F00
ENDCHAR
STARTCHAR m.uni006D
ENCODING 109
SWIDTH 557 0
DWIDTH 10 0
BBX 8 10 1 0
BITMAP
F600
FF00
DB00
DB00
DB00
DB00
DB00
DB00
DB00
DB00
ENDCHAR
STARTCHAR n.uni006E
ENCODING 110
SWIDTH 557 0
DWIDTH 10 0
BBX 8 10 1 0
BITMAP
EE00
FF00
E700
E700
E700
E700
E700
E700
E700
E700
ENDCHAR
STARTCHAR o.uni006F
ENCODING 111
SWIDTH 557 0
DWIDTH 10 0
BBX 8 10 1 0
BITMAP
3C00
7E00
E700
E700
E700
E700
E700
E700
7E00
3C00
ENDCHAR
STARTCHAR p.uni0070
ENCODING 112
SWIDTH 557 0
DWIDTH 10 0
BBX 8 14 1 -4
BITMAP
EE00
FE00
E700
E700
E700
E700
E700
E700
FE00
EE00
E000
E000
E000
E000
ENDCHAR
STARTCHAR q.uni0071
ENCODING 113
SWIDTH 557 0
DWIDTH 10 0
BBX 8 14 1 -4
BITMAP
7700
7F00
E700
E700
E700
E700
E700
E700
7F00
7700
0700
0700
0700
0700
ENDCHAR
STARTCHAR r.uni0072
ENCODING 114
SWIDTH 557 0
DWIDTH 10 0
BBX 7 10 2 0
BITMAP
EE00
FE00
F000
E000
E000
E000
E000
E000
E000
E000
ENDCHAR
STARTCHAR s.uni0073
ENCODING 115
SWIDTH 557 0
DWIDTH 10 0
BBX 8 10 1 0
BITMAP
3E00
FF00
E100
F000
7E00
3F00
0700
8700
FF00
7E00
ENDCHAR
STARTCHAR t.uni0074
ENCODING 116
SWIDTH 557 0
DWIDTH 10 0
BBX 8 13 1 0
BITMAP
3800
3800
3800
FF00
FF00
3800
3800
3800
3800
3800
3800
3F00
1F00
ENDCHAR
STARTCHAR u.uni0075
ENCODING 117
SWIDTH 557 0
DWIDTH 10 0
BBX 8 10 1 0
BITMAP
E700
E700
E700
E700
E700
E700
E700
E700
FF00
7700
ENDCHAR
STARTCHAR v.uni0076
ENCODING 118
SWIDTH 557 0
DWIDTH 10 0
BBX 8 10 1 0
BITMAP
E700
E700
6600
6600
6600
7E00
3C00
3C00
3C00
1800
ENDCHAR
STARTCHAR w.uni0077
ENCODING 119
SWIDTH 557 0
DWIDTH 10 0
BBX 10 10 0 0
BITMAP
C0C0
C0C0
C0C0
6D80
6D80
7F80
7F80
7380
3300
3300
ENDCHAR
STARTCHAR x.uni0078
ENCODING 120
SWIDTH 557 0
DWIDTH 10 0
BBX 8 10 1 0
BITMAP
E700
6600
3E00
3C00
1800
3C00
3C00
7E00
6600
E700
ENDCHAR
STARTCHAR y.uni0079
ENCODING 121
SWIDTH 557 0
DWIDTH 10 0
BBX 8 14 1 -4
BITMAP
E700
E700
6600
7600
3600
3C00
3C00
1C00
1C00
1800
1800
3800
7000
7000
ENDCHAR
STARTCHAR z.uni007A
ENCODING 122
SWIDTH 557 0
DWIDTH 10 0
BBX 8 10 1 0
BITMAP
FF00
FF00
0700
0E00
1C00
3800
7000
E000
FF00
FF00
ENDCHAR
STARTCHAR braceleft.uni007B
ENCODING 123
SWIDTH 557 0
DWIDTH 10 0
BBX 8 17 1 -3
BITMAP
0F00
1F00
1C00
1C00
1C00
1C00
1C00
3800
F000
3800
1C00
1C00
1C00
1C00
1C00
1F00
0F00
ENDCHAR
STARTCHAR bar.uni007C
ENCODING 124
SWIDTH 557 0
DWIDTH 10 0
BBX 2 18 4 -4
BITMAP
C000
C000
C000
C000
C000
C000
C000
C000
C000
C000
C000
C000
C000
C000
C000
C000
C000
C000
ENDCHAR
STARTCHAR braceright.uni007D
ENCODING 125
SWIDTH 557 0
DWIDTH 10 0
BBX 8 17 2 -3
BITMAP
F000
F800
3800
3800
3800
3800
3800
1C00
0F00
1C00
3800
3800
3800
3800
3800
F800
F000
ENDCHAR
STARTCHAR asciitilde.uni007E
ENCODING 126
SWIDTH 557 0
DWIDTH 10 0
BBX 9 3 1 4
BITMAP
7880
FF80
8700
ENDCHAR
STARTCHAR nbsp.uni00A0
ENCODING 160
SWIDTH 557 0
DWIDTH 10 0
BBX 0 0 0 0
BITMAP
ENDCHAR
STARTCHAR exclamdown.uni00A1
ENCODING 161
SWIDTH 557 0
DWIDTH 10 0
BBX 3 13 4 0
BITMAP
E000
E000
0000
0000
E000
E000
E000
E000
E000
E000
E000
E000
E000
ENDCHAR
STARTCHAR cent.uni00A2
ENCODING 162
SWIDTH 557 0
DWIDTH 10 0
BBX 8 16 1 -3
BITMAP
0400
0400
0400
1E00
7F00
7500
E400
E400
E400
E400
7500
7F00
1E00
0400
0400
0400
ENDCHAR
STARTCHAR sterling.uni00A3
ENCODING 163
SWIDTH 557 0
DWIDTH 10 0
BBX 9 13 1 0
BITMAP
0F00
1F80
3C80
3800
3800
3800
FF00
FF00
3800
3800
3800
FF80
FF80
ENDCHAR
STARTCHAR currency.uni00A4
ENCODING 164
SWIDTH 557 0
DWIDTH 10 0
BBX 8 8 1 2
BITMAP
8100
5A00
3C00
6600
6600
3C00
5A00
8100
ENDCHAR
STARTCHAR yen.uni00A5
ENCODING 165
SWIDTH 557 0
DWIDTH 10 0
BBX 9 13 1 0
BITMAP
C180
E380
6300
7700
F780
FF80
1C00
FF80
FF80
1C00
1C00
1C00
1C00
ENDCHAR
STARTCHAR brokenbar.uni00A6
ENCODING 166
SWIDTH 557 0
DWIDTH 10 0
BBX 2 16 4 -3
BITMAP
C000
C000
C000
C000
C000
C000
C000
0000
0000
C000
C000
C000
C000
C000
C000
C000
ENDCHAR
STARTCHAR section.uni00A7
ENCODING 167
SWIDTH 557 0
DWIDTH 10 0
BBX 7 15 1 -2
BITMAP
3800
7C00
6400
6000
7000
7800
CC00
C600
6600
3C00
1C00
0C00
4C00
7C00
3800
ENDCHAR
STARTCHAR dieresis.uni00A8
ENCODING 168
SWIDTH 557 0
DWIDTH 10 0
BBX 5 2 3 12
BITMAP
D800
D800
ENDCHAR
STARTCHAR copyright.uni00A9
ENCODING 169
SWIDTH 557 0
DWIDTH 10 0
BBX 10 11 0 1
BITMAP
1E00
2100
5E80
B840
B040
B040
B040
B840
5E80
2100
1E00
ENDCHAR
STARTCHAR ordfeminine.uni00AA
ENCODING 170
SWIDTH 557 0
DWIDTH 10 0
BBX 6 10 2 3
BITMAP
7800
7C00
0C00
7C00
CC00
FC00
6C00
0000
7C00
7C00
ENDCHAR
STARTCHAR guillemotleft.uni00AB
ENCODING 171
SWIDTH 557 0
DWIDTH 10 0
BBX 8 8 1 1
BITMAP
1100
3300
6600
CC00
CC00
6600
3300
1100
ENDCHAR
STARTCHAR logicalnot.uni00AC
ENCODING 172
SWIDTH 557 0
DWIDTH 10 0
BBX 9 5 1 3
BITMAP
FF80
FF80
0180
0180
0180
ENDCHAR
STARTCHAR hyphensoft.uni00AD
ENCODING 173
SWIDTH 557 0
DWIDTH 10 0
BBX 5 3 3 4
BITMAP
F800
F800
F800
ENDCHAR
STARTCHAR registered.uni00AE
ENCODING 174
SWIDTH 557 0
DWIDTH 10 0
BBX 10 11 0 1
BITMAP
1E00
2100
7E80
B340
B340
B340
BE40
B740
7380
2100
1E00
ENDCHAR
STARTCHAR macron.uni00AF
ENCODING 175
SWIDTH 557 0
DWIDTH 10 0
BBX 5 2 3 12
BITMAP
F800
F800
ENDCHAR
STARTCHAR degree.uni00B0
ENCODING 176
SWIDTH 557 0
DWIDTH 10 0
BBX 6 6 2 7
BITMAP
7800
CC00
8400
8400
CC00
7800
ENDCHAR
STARTCHAR plusminus.uni00B1
ENCODING 177
SWIDTH 557 0
DWIDTH 10 0
BBX 8 11 1 0
BITMAP
1800
1800
1800
FF00
FF00
1800
1800
1800
0000
FF00
FF00
ENDCHAR
STARTCHAR twosuperior.uni00B2
ENCODING 178
SWIDTH 557 0
DWIDTH 10 0
BBX 6 7 2 6
BITMAP
7800
8C00
0C00
1800
3000
6000
FC00
ENDCHAR
STARTCHAR threesuperior.uni00B3
ENCODING 179
SWIDTH 557 0
DWIDTH 10 0
BBX 6 7 2 6
BITMAP
7800
8C00
3000
0C00
0C00
8C00
7800
ENDCHAR
STARTCHAR acute.uni00B4
ENCODING 180
SWIDTH 557 0
DWIDTH 10 0
BBX 4 3 4 11
BITMAP
3000
6000
C000
ENDCHAR
STARTCHAR micro.uni00B5
ENCODING 181
SWIDTH 557 0
DWIDTH 10 0
BBX 9 14 1 -4
BITMAP
E700
E700
E700
E700
E700
E700
E700
E700
FF80
FB80
E000
E000
E000
E000
ENDCHAR
STARTCHAR paragraph.uni00B6
ENCODING 182
SWIDTH 557 0
DWIDTH 10 0
BBX 8 15 1 -2
BITMAP
7F00
F300
F300
F300
F300
F300
7300
3300
3300
3300
3300
3300
3300
3300
3300
ENDCHAR
STARTCHAR periodcentered.uni00B7
ENCODING 183
SWIDTH 557 0
DWIDTH 10 0
BBX 3 3 4 5
BITMAP
E000
E000
E000
ENDCHAR
STARTCHAR cedilla.uni00B8
ENCODING 184
SWIDTH 557 0
DWIDTH 10 0
BBX 3 4 4 -4
BITMAP
4000
2000
2000
E000
ENDCHAR
STARTCHAR onesuperior.uni00B9
ENCODING 185
SWIDTH 557 0
DWIDTH 10 0
BBX 6 7 2 6
BITMAP
F000
3000
3000
3000
3000
3000
FC00
ENDCHAR
STARTCHAR ordmasculine.uni00BA
ENCODING 186
SWIDTH 557 0
DWIDTH 10 0
BBX 6 10 2 3
BITMAP
7800
FC00
CC00
CC00
CC00
FC00
7800
0000
FC00
FC00
ENDCHAR
STARTCHAR guillemotright.uni00BB
ENCODING 187
SWIDTH 557 0
DWIDTH 10 0
BBX 8 8 2 1
BITMAP
8800
CC00
6600
3300
3300
6600
CC00
8800
ENDCHAR
STARTCHAR onequarter.uni00BC
ENCODING 188
SWIDTH 557 0
DWIDTH 10 0
BBX 10 16 0 -2
BITMAP
F000
3000
3000
3000
3000
3000
FC00
0180
3E00
C180
0380
0780
0D80
0FC0
0180
0180
ENDCHAR
STARTCHAR onehalf.uni00BD
ENCODING 189
SWIDTH 557 0
DWIDTH 10 0
BBX 10 16 0 -2
BITMAP
F000
3000
3000
3000
3000
3000
FC00
0180
3E00
C780
08C0
00C0
0180
0300
0600
0FC0
ENDCHAR
STARTCHAR threequarters.uni00BE
ENCODING 190
SWIDTH 557 0
DWIDTH 10 0
BBX 10 16 0 -2
BITMAP
7800
8C00
3000
0C00
0C00
8C00
7800
0180
3E00
C180
0380
0780
0D80
0FC0
0180
0180
ENDCHAR
STARTCHAR questiondown.uni00BF
ENCODING 191
SWIDTH 557 0
DWIDTH 10 0
BBX 7 13 2 0
BITMAP
3800
3800
0000
3800
3800
3800
1800
3000
6000
E000
E200
FE00
7C00
ENDCHAR
STARTCHAR Agrave.uni00C0
ENCODING 192
SWIDTH 557 0
DWIDTH 10 0
BBX 8 16 1 0
BITMAP
3000
1800
0000
1800
3C00
3C00
3C00
3C00
2400
6600
6600
7E00
7E00
6600
E700
E700
ENDCHAR
STARTCHAR Aacute.uni00C1
ENCODING 193
SWIDTH 557 0
DWIDTH 10 0
BBX 8 16 1 0
BITMAP
0C00
1800
0000
1800
3C00
3C00
3C00
3C00
2400
6600
6600
7E00
7E00
6600
E700
E700
ENDCHAR
STARTCHAR Acircumflex.uni00C2
ENCODING 194
SWIDTH 557 0
DWIDTH 10 0
BBX 8 16 1 0
BITMAP
3C00
6600
0000
1800
3C00
3C00
3C00
3C00
2400
6600
6600
7E00
7E00
6600
E700
E700
ENDCHAR
STARTCHAR Atilde.uni00C3
ENCODING 195
SWIDTH 557 0
DWIDTH 10 0
BBX 8 16 1 0
BITMAP
7200
4E00
0000
1800
3C00
3C00
3C00
3C00
2400
6600
6600
7E00
7E00
6600
E700
E700
ENDCHAR
STARTCHAR Adieresis.uni00C4
ENCODING 196
SWIDTH 557 0
DWIDTH 10 0
BBX 8 16 1 0
BITMAP
3600
3600
0000
1800
3C00
3C00
3C00
3C00
2400
6600
6600
7E00
7E00
6600
E700
E700
ENDCHAR
STARTCHAR Aring.uni00C5
ENCODING 197
SWIDTH 557 0
DWIDTH 10 0
BBX 8 17 1 0
BITMAP
1800
2400
2400
1800
0000
3C00
3C00
3C00
3C00
2400
6600
6600
7E00
7E00
6600
E700
E700
ENDCHAR
STARTCHAR AE.uni00C6
ENCODING 198
SWIDTH 557 0
DWIDTH 10 0
BBX 10 13 0 0
BITMAP
1FC0
1FC0
3700
3700
3700
37C0
77C0
6700
7F00
7F00
6700
C7C0
C7C0
ENDCHAR
STARTCHAR Ccedilla.uni00C7
ENCODING 199
SWIDTH 557 0
DWIDTH 10 0
BBX 8 17 1 -4
BITMAP
1E00
3F00
7100
E000
E000
E000
E000
E000
E000
E000
7100
3F00
1E00
0800
0C00
2C00
1800
ENDCHAR
STARTCHAR Egrave.uni00C8
ENCODING 200
SWIDTH 557 0
DWIDTH 10 0
BBX 8 16 1 0
BITMAP
3000
1800
0000
FF00
FF00
E000
E000
E000
FE00
FE00
E000
E000
E000
E000
FF00
FF00
ENDCHAR
STARTCHAR Eacute.uni00C9
ENCODING 201
SWIDTH 557 0
DWIDTH 10 0
BBX 8 16 1 0
BITMAP
0C00
1800
0000
FF00
FF00
E000
E000
E000
FE00
FE00
E000
E000
E000
E000
FF00
FF00
ENDCHAR
STARTCHAR Ecircumflex.uni00CA
ENCODING 202
SWIDTH 557 0
DWIDTH 10 0
BBX 8 16 1 0
BITMAP
3C00
6600
0000
FF00
FF00
E000
E000
E000
FE00
FE00
E000
E000
E000
E000
FF00
FF00
ENDCHAR
STARTCHAR Edieresis.uni00CB
ENCODING 203
SWIDTH 557 0
DWIDTH 10 0
BBX 8 16 1 0
BITMAP
3600
3600
0000
FF00
FF00
E000
E000
E000
FE00
FE00
E000
E000
E000
E000
FF00
FF00
ENDCHAR
STARTCHAR Igrave.uni00CC
ENCODING 204
SWIDTH 557 0
DWIDTH 10 0
BBX 7 16 2 0
BITMAP
6000
3000
0000
FE00
FE00
3800
3800
3800
3800
3800
3800
3800
3800
3800
FE00
FE00
ENDCHAR
STARTCHAR Iacute.uni00CD
ENCODING 205
SWIDTH 557 0
DWIDTH 10 0
BBX 7 16 2 0
BITMAP
1800
3000
0000
FE00
FE00
3800
3800
3800
3800
3800
3800
3800
3800
3800
FE00
FE00
ENDCHAR
STARTCHAR Icircumflex.uni00CE
ENCODING 206
SWIDTH 557 0
DWIDTH 10 0
BBX 7 16 2 0
BITMAP
7800
CC00
0000
FE00
FE00
3800
3800
3800
3800
3800
3800
3800
3800
3800
FE00
FE00
ENDCHAR
STARTCHAR Idieresis.uni00CF
ENCODING 207
SWIDTH 557 0
DWIDTH 10 0
BBX 7 16 2 0
BITMAP
6C00
6C00
0000
FE00
FE00
3800
3800
3800
3800
3800
3800
3800
3800
3800
FE00
FE00
ENDCHAR
STARTCHAR Eth.uni00D0
ENCODING 208
SWIDTH 557 0
DWIDTH 10 0
BBX 9 13 0 0
BITMAP
7E00
7F00
7700
7380
7380
FB80
FB80
7380
7380
7380
7700
7F00
7E00
ENDCHAR
STARTCHAR Ntilde.uni00D1
ENCODING 209
SWIDTH 557 0
DWIDTH 10 0
BBX 8 16 1 0
BITMAP
7200
4E00
0000
E700
E700
F700
F700
F700
F700
FF00
EF00
EF00
EF00
EF00
E700
E700
ENDCHAR
STARTCHAR Ograve.uni00D2
ENCODING 210
SWIDTH 557 0
DWIDTH 10 0
BBX 8 16 1 0
BITMAP
3000
1800
0000
3C00
7E00
6600
E700
E700
E700
E700
E700
E700
E700
6600
7E00
3C00
ENDCHAR
STARTCHAR Oacute.uni00D3
ENCODING 211
SWIDTH 557 0
DWIDTH 10 0
BBX 8 16 1 0
BITMAP
0C00
1800
0000
3C00
7E00
6600
E700
E700
E700
E700
E700
E700
E700
6600
7E00
3C00
ENDCHAR
STARTCHAR Ocircumflex.uni00D4
ENCODING 212
SWIDTH 557 0
DWIDTH 10 0
BBX 8 16 1 0
BITMAP
3C00
6600
0000
3C00
7E00
6600
E700
E700
E700
E700
E700
E700
E700
6600
7E00
3C00
ENDCHAR
STARTCHAR Otilde.uni00D5
ENCODING 213
SWIDTH 557 0
DWIDTH 10 0
BBX 8 16 1 0
BITMAP
7200
4E00
0000
3C00
7E00
6600
E700
E700
E700
E700
E700
E700
E700
6600
7E00
3C00
ENDCHAR
STARTCHAR Odieresis.uni00D6
ENCODING 214
SWIDTH 557 0
DWIDTH 10 0
BBX 8 16 1 0
BITMAP
3600
3600
0000
3C00
7E00
6600
E700
E700
E700
E700
E700
E700
E700
6600
7E00
3C00
ENDCHAR
STARTCHAR multiply.uni00D7
ENCODING 215
SWIDTH 557 0
DWIDTH 10 0
BBX 8 8 1 2
BITMAP
4200
E700
7E00
3C00
3C00
7E00
E700
4200
ENDCHAR
STARTCHAR Oslash.uni00D8
ENCODING 216
SWIDTH 557 0
DWIDTH 10 0
BBX 10 13 0 0
BITMAP
1EC0
3F80
3300
7780
7780
7780
7F80
7B80
7B80
7380
3300
7F00
DE00
ENDCHAR
STARTCHAR Ugrave.uni00D9
ENCODING 217
SWIDTH 557 0
DWIDTH 10 0
BBX 8 16 1 0
BITMAP
3000
1800
0000
E700
E700
E700
E700
E700
E700
E700
E700
E700
E700
E700
7E00
3C00
ENDCHAR
STARTCHAR Uacute.uni00DA
ENCODING 218
SWIDTH 557 0
DWIDTH 10 0
BBX 8 16 1 0
BITMAP
0C00
1800
0000
E700
E700
E700
E700
E700
E700
E700
E700
E700
E700
E700
7E00
3C00
ENDCHAR
STARTCHAR Ucircumflex.uni00DB
ENCODING 219
SWIDTH 557 0
DWIDTH 10 0
BBX 8 16 1 0
BITMAP
3C00
6600
0000
E700
E700
E700
E700
E700
E700
E700
E700
E700
E700
E700
7E00
3C00
ENDCHAR
STARTCHAR Udieresis.uni00DC
ENCODING 220
SWIDTH 557 0
DWIDTH 10 0
BBX 8 16 1 0
BITMAP
3600
3600
0000
E700
E700
E700
E700
E700
E700
E700
E700
E700
E700
E700
7E00
3C00
ENDCHAR
STARTCHAR Yacute.uni00DD
ENCODING 221
SWIDTH 557 0
DWIDTH 10 0
BBX 9 16 1 0
BITMAP
0C00
1800
0000
C180
C180
E380
6300
7700
3600
3E00
1C00
1C00
1C00
1C00
1C00
1C00
ENDCHAR
STARTCHAR Thorn.uni00DE
ENCODING 222
SWIDTH 557 0
DWIDTH 10 0
BBX 8 13 1 0
BITMAP
E000
E000
FC00
FE00
E700
E700
E700
E700
FE00
FC00
E000
E000
E000
ENDCHAR
STARTCHAR germandbls.uni00DF
ENCODING 223
SWIDTH 557 0
DWIDTH 10 0
BBX 8 14 1 0
BITMAP
3C00
7E00
E600
E600
EE00
EC00
EC00
EE00
E700
E300
E300
E300
EF00
EE00
ENDCHAR
STARTCHAR agrave.uni00E0
ENCODING 224
SWIDTH 557 0
DWIDTH 10 0
BBX 8 14 1 0
BITMAP
3000
1800
0C00
0000
3C00
7E00
4700
0700
7F00
FF00
E700
E700
FF00
7700
ENDCHAR
STARTCHAR aacute.uni00E1
ENCODING 225
SWIDTH 557 0
DWIDTH 10 0
BBX 8 14 1 0
BITMAP
0600
0C00
1800
0000
3C00
7E00
4700
0700
7F00
FF00
E700
E700
FF00
7700
ENDCHAR
STARTCHAR acircumflex.uni00E2
ENCODING 226
SWIDTH 557 0
DWIDTH 10 0
BBX 8 14 1 0
BITMAP
1800
3C00
6600
0000
3C00
7E00
4700
0700
7F00
FF00
E700
E700
FF00
7700
ENDCHAR
STARTCHAR atilde.uni00E3
ENCODING 227
SWIDTH 557 0
DWIDTH 10 0
BBX 8 14 1 0
BITMAP
7200
4E00
0000
0000
3C00
7E00
4700
0700
7F00
FF00
E700
E700
FF00
7700
ENDCHAR
STARTCHAR adieresis.uni00E4
ENCODING 228
SWIDTH 557 0
DWIDTH 10 0
BBX 8 14 1 0
BITMAP
3600
3600
0000
0000
3C00
7E00
4700
0700
7F00
FF00
E700
E700
FF00
7700
ENDCHAR
STARTCHAR aring.uni00E5
ENCODING 229
SWIDTH 557 0
DWIDTH 10 0
BBX 8 16 1 0
BITMAP
1C00
2200
2200
2200
1C00
0000
3C00
7E00
4700
0700
7F00
FF00
E700
E700
FF00
7700
ENDCHAR
STARTCHAR ae.uni00E6
ENCODING 230
SWIDTH 557 0
DWIDTH 10 0
BBX 10 10 0 0
BITMAP
3380
7FC0
4CC0
0CC0
7FC0
FFC0
CC00
CC40
FFC0
7380
ENDCHAR
STARTCHAR ccedilla.uni00E7
ENCODING 231
SWIDTH 557 0
DWIDTH 10 0
BBX 8 14 1 -4
BITMAP
3E00
7F00
7100
E000
E000
E000
E000
7100
7F00
3E00
0800
0C00
2C00
1800
ENDCHAR
STARTCHAR egrave.uni00E8
ENCODING 232
SWIDTH 557 0
DWIDTH 10 0
BBX 8 14 1 0
BITMAP
3000
1800
0C00
0000
3C00
7E00
E700
E700
FF00
FF00
E000
F100
7F00
3E00
ENDCHAR
STARTCHAR eacute.uni00E9
ENCODING 233
SWIDTH 557 0
DWIDTH 10 0
BBX 8 14 1 0
BITMAP
0600
0C00
1800
0000
3C00
7E00
E700
E700
FF00
FF00
E000
F100
7F00
3E00
ENDCHAR
STARTCHAR ecircumflex.uni00EA
ENCODING 234
SWIDTH 557 0
DWIDTH 10 0
BBX 8 14 1 0
BITMAP
1800
3C00
6600
0000
3C00
7E00
E700
E700
FF00
FF00
E000
F100
7F00
3E00
ENDCHAR
STARTCHAR edieresis.uni00EB
ENCODING 235
SWIDTH 557 0
DWIDTH 10 0
BBX 8 14 1 0
BITMAP
3600
3600
0000
0000
3C00
7E00
E700
E700
FF00
FF00
E000
F100
7F00
3E00
ENDCHAR
STARTCHAR igrave.uni00EC
ENCODING 236
SWIDTH 557 0
DWIDTH 10 0
BBX 9 14 1 0
BITMAP
3000
1800
0C00
0000
7C00
7C00
1C00
1C00
1C00
1C00
1C00
1C00
FF80
FF80
ENDCHAR
STARTCHAR iacute.uni00ED
ENCODING 237
SWIDTH 557 0
DWIDTH 10 0
BBX 9 14 1 0
BITMAP
0600
0C00
1800
0000
7C00
7C00
1C00
1C00
1C00
1C00
1C00
1C00
FF80
FF80
ENDCHAR
STARTCHAR icircumflex.uni00EE
ENCODING 238
SWIDTH 557 0
DWIDTH 10 0
BBX 9 14 1 0
BITMAP
1800
3C00
6600
0000
7C00
7C00
1C00
1C00
1C00
1C00
1C00
1C00
FF80
FF80
ENDCHAR
STARTCHAR idieresis.uni00EF
ENCODING 239
SWIDTH 557 0
DWIDTH 10 0
BBX 9 14 1 0
BITMAP
3600
3600
0000
0000
7C00
7C00
1C00
1C00
1C00
1C00
1C00
1C00
FF80
FF80
ENDCHAR
STARTCHAR eth.uni00F0
ENCODING 240
SWIDTH 557 0
DWIDTH 10 0
BBX 8 14 1 0
BITMAP
3600
3C00
3800
7800
0C00
3E00
7E00
E700
E700
E700
E700
E700
7E00
3C00
ENDCHAR
STARTCHAR ntilde.uni00F1
ENCODING 241
SWIDTH 557 0
DWIDTH 10 0
BBX 8 14 1 0
BITMAP
7200
4E00
0000
0000
EE00
FF00
E700
E700
E700
E700
E700
E700
E700
E700
ENDCHAR
STARTCHAR ograve.uni00F2
ENCODING 242
SWIDTH 557 0
DWIDTH 10 0
BBX 8 14 1 0
BITMAP
3000
1800
0C00
0000
3C00
7E00
E700
E700
E700
E700
E700
E700
7E00
3C00
ENDCHAR
STARTCHAR oacute.uni00F3
ENCODING 243
SWIDTH 557 0
DWIDTH 10 0
BBX 8 14 1 0
BITMAP
0600
0C00
1800
0000
3C00
7E00
E700
E700
E700
E700
E700
E700
7E00
3C00
ENDCHAR
STARTCHAR ocircumflex.uni00F4
ENCODING 244
SWIDTH 557 0
DWIDTH 10 0
BBX 8 14 1 0
BITMAP
1800
3C00
6600
0000
3C00
7E00
E700
E700
E700
E700
E700
E700
7E00
3C00
ENDCHAR
STARTCHAR otilde.uni00F5
ENCODING 245
SWIDTH 557 0
DWIDTH 10 0
BBX 8 14 1 0
BITMAP
3600
7600
6C00
0000
3C00
7E00
E700
E700
E700
E700
E700
E700
7E00
3C00
ENDCHAR
STARTCHAR odieresis.uni00F6
ENCODING 246
SWIDTH 557 0
DWIDTH 10 0
BBX 8 14 1 0
BITMAP
6C00
6C00
0000
0000
3C00
7E00
E700
E700
E700
E700
E700
E700
7E00
3C00
ENDCHAR
STARTCHAR divide.uni00F7
ENCODING 247
SWIDTH 557 0
DWIDTH 10 0
BBX 9 10 1 1
BITMAP
1C00
1C00
1C00
0000
FF80
FF80
0000
1C00
1C00
1C00
ENDCHAR
STARTCHAR oslash.uni00F8
ENCODING 248
SWIDTH 557 0
DWIDTH 10 0
BBX 8 12 1 -1
BITMAP
0100
3B00
7E00
E600
EF00
EF00
F700
F700
6700
7E00
DC00
8000
ENDCHAR
STARTCHAR ugrave.uni00F9
ENCODING 249
SWIDTH 557 0
DWIDTH 10 0
BBX 8 14 1 0
BITMAP
3000
1800
0C00
0000
E700
E700
E700
E700
E700
E700
E700
E700
FF00
7700
ENDCHAR
STARTCHAR uacute.uni00FA
ENCODING 250
SWIDTH 557 0
DWIDTH 10 0
BBX 8 14 1 0
BITMAP
0600
0C00
1800
0000
E700
E700
E700
E700
E700
E700
E700
E700
FF00
7700
ENDCHAR
STARTCHAR ucircumflex.uni00FB
ENCODING 251
SWIDTH 557 0
DWIDTH 10 0
BBX 8 14 1 0
BITMAP
1800
3C00
6600
0000
E700
E700
E700
E700
E700
E700
E700
E700
FF00
7700
ENDCHAR
STARTCHAR udieresis.uni00FC
ENCODING 252
SWIDTH 557 0
DWIDTH 10 0
BBX 8 14 1 0
BITMAP
3600
3600
0000
0000
E700
E700
E700
E700
E700
E700
E700
E700
FF00
7700
ENDCHAR
STARTCHAR yacute.uni00FD
ENCODING 253
SWIDTH 557 0
DWIDTH 10 0
BBX 8 18 1 -4
BITMAP
0600
0C00
1800
0000
E700
E700
6600
7600
3600
3C00
3C00
1C00
1C00
1800
1800
3800
7000
7000
ENDCHAR
STARTCHAR thorn.uni00FE
ENCODING 254
SWIDTH 557 0
DWIDTH 10 0
BBX 8 18 1 -4
BITMAP
E000
E000
E000
E000
EE00
FE00
E700
E700
E700
E700
E700
E700
FE00
EE00
E000
E000
E000
E000
ENDCHAR
STARTCHAR ydieresis.uni00FF
ENCODING 255
SWIDTH 557 0
DWIDTH 10 0
BBX 8 18 1 -4
BITMAP
3600
3600
0000
0000
E700
E700
6600
7600
3600
3C00
3C00
1C00
1C00
1800
1800
3800
7000
7000
ENDCHAR
STARTCHAR Cacute.uni0106
ENCODING 262
SWIDTH 557 0
DWIDTH 10 0
BBX 8 16 1 0
BITMAP
0600
0C00
0000
1E00
3F00
7100
E000
E000
E000
E000
E000
E000
E000
7100
3F00
1E00
ENDCHAR
STARTCHAR cacute.uni0107
ENCODING 263
SWIDTH 557 0
DWIDTH 10 0
BBX 8 14 1 0
BITMAP
0300
0600
0C00
0000
3E00
7F00
7100
E000
E000
E000
E000
7100
7F00
3E00
ENDCHAR
STARTCHAR Ccaron.uni010C
ENCODING 268
SWIDTH 557 0
DWIDTH 10 0
BBX 8 16 1 0
BITMAP
3300
1E00
0000
1E00
3F00
7100
E000
E000
E000
E000
E000
E000
E000
7100
3F00
1E00
ENDCHAR
STARTCHAR ccaron.uni010D
ENCODING 269
SWIDTH 557 0
DWIDTH 10 0
BBX 8 14 1 0
BITMAP
3300
1E00
0C00
0000
3E00
7F00
7100
E000
E000
E000
E000
7100
7F00
3E00
ENDCHAR
STARTCHAR dcroat.uni0111
ENCODING 273
SWIDTH 557 0
DWIDTH 10 0
BBX 9 14 1 0
BITMAP
0700
3F80
3F80
0700
7700
7F00
E700
E700
E700
E700
E700
E700
7F00
7700
ENDCHAR
STARTCHAR Gbreve.uni011E
ENCODING 286
SWIDTH 557 0
DWIDTH 10 0
BBX 8 16 1 0
BITMAP
4200
3C00
0000
1E00
7F00
7100
E000
E000
E000
EF00
EF00
E700
E700
7700
7F00
1E00
ENDCHAR
STARTCHAR gbreve.uni011F
ENCODING 287
SWIDTH 557 0
DWIDTH 10 0
BBX 8 18 1 -4
BITMAP
4200
6600
3C00
0000
3700
7F00
E700
E700
E700
E700
E700
E700
7F00
3700
0700
4700
7E00
3C00
ENDCHAR
STARTCHAR Idotaccent.uni0130
ENCODING 304
SWIDTH 557 0
DWIDTH 10 0
BBX 7 16 2 0
BITMAP
3000
3000
0000
FE00
FE00
3800
3800
3800
3800
3800
3800
3800
3800
3800
FE00
FE00
ENDCHAR
STARTCHAR dotlessi.uni0131
ENCODING 305
SWIDTH 557 0
DWIDTH 10 0
BBX 9 10 1 0
BITMAP
7C00
7C00
1C00
1C00
1C00
1C00
1C00
1C00
FF80
FF80
ENDCHAR
STARTCHAR Lslash.uni0141
ENCODING 321
SWIDTH 557 0
DWIDTH 10 0
BBX 9 13 0 0
BITMAP
7000
7000
7000
7600
7E00
7C00
7000
F000
F000
7000
7000
7F80
7F80
ENDCHAR
STARTCHAR lslash.uni0142
ENCODING 322
SWIDTH 557 0
DWIDTH 10 0
BBX 9 14 0 0
BITMAP
7C00
7C00
1C00
1D80
1F00
1E00
1C00
3C00
FC00
5C00
1C00
1C00
0F80
0F80
ENDCHAR
STARTCHAR OE.uni0152
ENCODING 338
SWIDTH 557 0
DWIDTH 10 0
BBX 8 13 1 0
BITMAP
3F00
7F00
EE00
EE00
EE00
EF00
EF00
EE00
EE00
EE00
EE00
7F00
3F00
ENDCHAR
STARTCHAR oe.uni0153
ENCODING 339
SWIDTH 557 0
DWIDTH 10 0
BBX 10 10 0 0
BITMAP
7380
7FC0
CCC0
CCC0
CFC0
CFC0
CC00
CC40
7FC0
7380
ENDCHAR
STARTCHAR Scedilla.uni015E
ENCODING 350
SWIDTH 557 0
DWIDTH 10 0
BBX 8 17 1 -4
BITMAP
3C00
7E00
E200
E000
F000
7C00
3E00
0F00
0700
0700
C700
FE00
7C00
0800
0400
0400
1C00
ENDCHAR
STARTCHAR scedilla.uni015F
ENCODING 351
SWIDTH 557 0
DWIDTH 10 0
BBX 8 14 1 -4
BITMAP
3E00
FF00
E100
F000
7E00
3F00
0700
8700
FF00
7E00
0800
0400
0400
1C00
ENDCHAR
STARTCHAR Scaron.uni0160
ENCODING 352
SWIDTH 557 0
DWIDTH 10 0
BBX 8 16 1 0
BITMAP
6600
3C00
0000
3C00
7E00
E200
E000
F000
7C00
3E00
0F00
0700
0700
C700
FE00
7C00
ENDCHAR
STARTCHAR scaron.uni0161
ENCODING 353
SWIDTH 557 0
DWIDTH 10 0
BBX 8 14 1 0
BITMAP
6600
3C00
1800
0000
3E00
FF00
E100
F000
7E00
3F00
0700
8700
FF00
7E00
ENDCHAR
STARTCHAR Ydieresis.uni0178
ENCODING 376
SWIDTH 557 0
DWIDTH 10 0
BBX 9 16 1 0
BITMAP
3600
3600
0000
C180
C180
E380
6300
7700
3600
3E00
1C00
1C00
1C00
1C00
1C00
1C00
ENDCHAR
STARTCHAR Zcaron.uni017D
ENCODING 381
SWIDTH 557 0
DWIDTH 10 0
BBX 8 16 1 0
BITMAP
6600
3C00
0000
FF00
FF00
0700
0E00
0E00
1C00
1800
3800
7000
7000
E000
FF00
FF00
ENDCHAR
STARTCHAR zcaron.uni017E
ENCODING 382
SWIDTH 557 0
DWIDTH 10 0
BBX 8 14 1 0
BITMAP
6600
3C00
1800
0000
FF00
FF00
0700
0E00
1C00
3800
7000
E000
FF00
FF00
ENDCHAR
STARTCHAR florin.uni0192
ENCODING 402
SWIDTH 557 0
DWIDTH 10 0
BBX 9 17 0 -4
BITMAP
0300
0780
0E00
0E00
0E00
3F00
3F00
0E00
1C00
1C00
1C00
1C00
1C00
1C00
3C00
F800
7000
ENDCHAR
STARTCHAR circumflex.uni02C6
ENCODING 710
SWIDTH 557 0
DWIDTH 10 0
BBX 6 3 2 11
BITMAP
3000
7800
CC00
ENDCHAR
STARTCHAR caron.uni02C7
ENCODING 711
SWIDTH 557 0
DWIDTH 10 0
BBX 6 3 2 11
BITMAP
CC00
7800
3000
ENDCHAR
STARTCHAR breve.uni02D8
ENCODING 728
SWIDTH 557 0
DWIDTH 10 0
BBX 6 3 2 11
BITMAP
8400
CC00
7800
ENDCHAR
STARTCHAR dotaccent.uni02D9
ENCODING 729
SWIDTH 557 0
DWIDTH 10 0
BBX 2 2 4 12
BITMAP
C000
C000
ENDCHAR
STARTCHAR ring.uni02DA
ENCODING 730
SWIDTH 557 0
DWIDTH 10 0
BBX 5 5 3 11
BITMAP
7000
8800
8800
8800
7000
ENDCHAR
STARTCHAR ogonek.uni02DB
ENCODING 731
SWIDTH 557 0
DWIDTH 10 0
BBX 4 4 4 -4
BITMAP
4000
8000
8000
7000
ENDCHAR
STARTCHAR tilde.uni02DC
ENCODING 732
SWIDTH 557 0
DWIDTH 10 0
BBX 6 2 2 12
BITMAP
E400
9C00
ENDCHAR
STARTCHAR hungarumlaut.uni02DD
ENCODING 733
SWIDTH 557 0
DWIDTH 10 0
BBX 6 3 2 11
BITMAP
6C00
4800
9000
ENDCHAR
STARTCHAR Omega.uni03A9
ENCODING 937
SWIDTH 557 0
DWIDTH 10 0
BBX 9 13 1 0
BITMAP
3E00
7F00
7700
E380
E380
E380
E380
E380
6300
6300
2200
F780
F780
ENDCHAR
STARTCHAR mu.uni03BC
ENCODING 956
SWIDTH 557 0
DWIDTH 10 0
BBX 9 14 1 -4
BITMAP
E700
E700
E700
E700
E700
E700
E700
E700
FF80
FB80
E000
E000
E000
E000
ENDCHAR
STARTCHAR endash.uni2013
ENCODING 8211
SWIDTH 557 0
DWIDTH 10 0
BBX 6 2 2 4
BITMAP
FC00
FC00
ENDCHAR
STARTCHAR emdash.uni2014
ENCODING 8212
SWIDTH 557 0
DWIDTH 10 0
BBX 8 2 1 4
BITMAP
FF00
FF00
ENDCHAR
STARTCHAR quoteleft.uni2018
ENCODING 8216
SWIDTH 557 0
DWIDTH 10 0
BBX 4 6 4 8
BITMAP
3000
7000
6000
E000
E000
E000
ENDCHAR
STARTCHAR quoteright.uni2019
ENCODING 8217
SWIDTH 557 0
DWIDTH 10 0
BBX 4 6 3 8
BITMAP
7000
7000
7000
6000
E000
C000
ENDCHAR
STARTCHAR quotesinglbase.uni201A
ENCODING 8218
SWIDTH 557 0
DWIDTH 10 0
BBX 4 6 3 -3
BITMAP
7000
7000
7000
6000
E000
C000
ENDCHAR
STARTCHAR quotedblleft.uni201C
ENCODING 8220
SWIDTH 557 0
DWIDTH 10 0
BBX 9 6 1 8
BITMAP
3180
7380
6300
E700
E700
E700
ENDCHAR
STARTCHAR quotedblright.uni201D
ENCODING 8221
SWIDTH 557 0
DWIDTH 10 0
BBX 9 6 0 8
BITMAP
7380
7380
7380
6300
E700
C600
ENDCHAR
STARTCHAR quotedblbase.uni201E
ENCODING 8222
SWIDTH 557 0
DWIDTH 10 0
BBX 9 6 0 -3
BITMAP
7380
7380
7380
6300
E700
C600
ENDCHAR
STARTCHAR dagger.uni2020
ENCODING 8224
SWIDTH 557 0
DWIDTH 10 0
BBX 8 15 1 -2
BITMAP
1800
1800
1800
FF00
FF00
1800
1800
1800
1800
1800
1800
1800
1800
1800
1800
ENDCHAR
STARTCHAR daggerdbl.uni2021
ENCODING 8225
SWIDTH 557 0
DWIDTH 10 0
BBX 8 15 1 -2
BITMAP
1800
1800
1800
FF00
FF00
1800
1800
1800
1800
1800
FF00
FF00
1800
1800
1800
ENDCHAR
STARTCHAR bullet.uni2022
ENCODING 8226
SWIDTH 557 0
DWIDTH 10 0
BBX 6 6 2 4
BITMAP
7800
FC00
FC00
FC00
FC00
7800
ENDCHAR
STARTCHAR ellipsis.uni2026
ENCODING 8230
SWIDTH 557 0
DWIDTH 10 0
BBX 8 3 0 0
BITMAP
DB00
DB00
DB00
ENDCHAR
STARTCHAR perthousand.uni2030
ENCODING 8240
SWIDTH 557 0
DWIDTH 10 0
BBX 10 13 0 0
BITMAP
7000
D800
D800
D8C0
7300
0C00
3000
C000
7380
DEC0
DEC0
DEC0
7380
ENDCHAR
STARTCHAR guilsinglleft.uni2039
ENCODING 8249
SWIDTH 557 0
DWIDTH 10 0
BBX 4 8 3 1
BITMAP
1000
3000
6000
C000
C000
6000
3000
1000
ENDCHAR
STARTCHAR guilsinglright.uni203A
ENCODING 8250
SWIDTH 557 0
DWIDTH 10 0
BBX 4 8 3 1
BITMAP
8000
C000
6000
3000
3000
6000
C000
8000
ENDCHAR
STARTCHAR Euro.uni20AC
ENCODING 8364
SWIDTH 557 0
DWIDTH 10 0
BBX 8 13 1 0
BITMAP
1E00
3F00
3900
7000
FE00
FE00
7000
FE00
FE00
7000
3900
3F00
1E00
ENDCHAR
STARTCHAR trademark.uni2122
ENCODING 8482
SWIDTH 557 0
DWIDTH 10 0
BBX 9 5 0 8
BITMAP
E880
4D80
4A80
4880
4880
ENDCHAR
STARTCHAR partialdiff.uni2202
ENCODING 8706
SWIDTH 557 0
DWIDTH 10 0
BBX 8 12 1 0
BITMAP
1C00
3200
2300
0300
0300
3B00
6B00
C700
C600
C600
CC00
7800
ENDCHAR
STARTCHAR Delta.uni2206
ENCODING 8710
SWIDTH 557 0
DWIDTH 10 0
BBX 10 13 0 0
BITMAP
0C00
1C00
1E00
1E00
1E00
3300
3300
3300
7380
6180
6180
FFC0
FFC0
ENDCHAR
STARTCHAR Pi.uni03A0
ENCODING 928
SWIDTH 557 0
DWIDTH 10 0
BBX 8 13 1 0
BITMAP
FF00
FF00
E700
E700
E700
E700
E700
E700
E700
E700
E700
E700
E700
ENDCHAR
STARTCHAR summation.uni2211
ENCODING 8721
SWIDTH 557 0
DWIDTH 10 0
BBX 8 17 1 -4
BITMAP
FF00
FF00
6000
6000
3000
3000
1800
1800
0C00
1800
1800
3000
3000
6000
6000
FF00
FF00
ENDCHAR
STARTCHAR minus.uni2212
ENCODING 8722
SWIDTH 557 0
DWIDTH 10 0
BBX 8 2 1 5
BITMAP
FF00
FF00
ENDCHAR
STARTCHAR slashdiv.uni2215
ENCODING 8725
SWIDTH 557 0
DWIDTH 10 0
BBX 9 16 1 -2
BITMAP
0180
0180
0300
0300
0600
0600
0C00
0C00
1800
1800
3000
3000
6000
6000
C000
C000
ENDCHAR
STARTCHAR bulletop.uni2219
ENCODING 8729
SWIDTH 557 0
DWIDTH 10 0
BBX 3 3 4 5
BITMAP
E000
E000
E000
ENDCHAR
STARTCHAR radical.uni221A
ENCODING 8730
SWIDTH 557 0
DWIDTH 10 0
BBX 9 15 0 0
BITMAP
0180
0180
0100
0300
0300
0300
0200
E600
F600
3600
3400
1C00
1C00
1800
0800
ENDCHAR
STARTCHAR infinity.uni221E
ENCODING 8734
SWIDTH 557 0
DWIDTH 10 0
BBX 10 7 0 2
BITMAP
7380
FFC0
CCC0
CCC0
CCC0
FFC0
7380
ENDCHAR
STARTCHAR integral.uni222B
ENCODING 8747
SWIDTH 557 0
DWIDTH 10 0
BBX 8 17 1 -3
BITMAP
0700
0F00
0B00
1800
1800
1800
1800
1800
1800
1800
1800
1800
1800
1800
D000
F000
E000
ENDCHAR
STARTCHAR approxequal.uni2248
ENCODING 8776
SWIDTH 557 0
DWIDTH 10 0
BBX 9 7 1 2
BITMAP
7880
FF80
8700
0000
7080
FF80
8F00
ENDCHAR
STARTCHAR notequal.uni2260
ENCODING 8800
SWIDTH 557 0
DWIDTH 10 0
BBX 9 12 1 0
BITMAP
0100
0180
0300
FF80
FF80
0C00
1800
FF80
FF80
6000
C000
4000
ENDCHAR
STARTCHAR lessequal.uni2264
ENCODING 8804
SWIDTH 557 0
DWIDTH 10 0
BBX 9 10 1 0
BITMAP
0180
0F80
7F00
F000
F000
7F00
0F80
0180
FF80
FF80
ENDCHAR
STARTCHAR greaterequal.uni2265
ENCODING 8805
SWIDTH 557 0
DWIDTH 10 0
BBX 9 10 1 0
BITMAP
C000
F800
7F00
0780
0780
7F00
F800
C000
FF80
FF80
ENDCHAR
STARTCHAR fi.uniFB01
ENCODING 64257
SWIDTH 557 0
DWIDTH 10 0
BBX 9 14 0 0
BITMAP
3B80
7B80
7380
7000
FF80
FF80
7380
7380
7380
7380
7380
7380
7380
7380
ENDCHAR
STARTCHAR fl.uniFB02
ENCODING 64258
SWIDTH 557 0
DWIDTH 10 0
BBX 9 14 0 0
BITMAP
3F80
7F80
7380
7380
FB80
FB80
7380
7380
7380
7380
7380
7380
7380
7380
ENDCHAR
STARTCHAR y-hat.uni0177
ENCODING 375
SWIDTH 557 0
DWIDTH 10 0
BBX 8 18 1 -4
BITMAP
1800
3C00
6600
0000
E700
E700
6600
7600
3600
3C00
3C00
1C00
1C00
1800
1800
3800
7000
7000
ENDCHAR
STARTCHAR y-bar.uni0233
ENCODING 563
SWIDTH 557 0
DWIDTH 10 0
BBX 8 18 1 -4
BITMAP
7E00
7E00
0000
0000
E700
E700
6600
7600
3600
3C00
3C00
1C00
1C00
1800
1800
3800
7000
7000
ENDCHAR
STARTCHAR h-hat.uni0302
ENCODING 770
SWIDTH 557 0
DWIDTH 10 0
BBX 8 14 1 0
BITMAP
1800
3C00
6600
0000
E700
6600
3E00
3C00
1800
3C00
3C00
7E00
6600
E700
ENDCHAR
STARTCHAR x-bar.uni0304
ENCODING 772
SWIDTH 557 0
DWIDTH 10 0
BBX 8 14 1 0
BITMAP
7E00
7E00
0000
0000
E700
6600
3E00
3C00
1800
3C00
3C00
7E00
6600
E700
ENDCHAR
STARTCHAR xsuperior.uni02E3
ENCODING 739
SWIDTH 832 0
DWIDTH 10 0
BBX 7 7 1 6
BITMAP
EE00
EE00
6C00
3800
6C00
EE00
EE00
ENDCHAR
STARTCHAR eqminus.uni23BB
ENCODING 9147
SWIDTH 832 0
DWIDTH 10 0
BBX 8 2 1 9
BITMAP
FF00
FF00
ENDCHAR
STARTCHAR lf.uni240A
ENCODING 9226
SWIDTH 557 0
DWIDTH 10 0
BBX 10 15 0 -1
BITMAP
C000
C000
C000
C000
C000
C000
F000
07C0
0600
0600
0600
0780
0600
0600
0600
ENDCHAR
STARTCHAR esc.uni241B
ENCODING 9243
SWIDTH 557 0
DWIDTH 10 0
BBX 10 17 0 -3
BITMAP
F000
C000
C000
E000
C000
CE00
F800
1800
0C00
0600
07C0
1F00
0300
0300
0300
0300
01C0
ENDCHAR
STARTCHAR bdlvr.uni251C
ENCODING 9500
SWIDTH 557 0
DWIDTH 10 0
BBX 6 16 3 -2
BITMAP
C000
C000
C000
C000
C000
C000
C000
FC00
FC00
C000
C000
C000
C000
C000
C000
C000
ENDCHAR
STARTCHAR block.uni2588
ENCODING 9608
SWIDTH 832 0
DWIDTH 10 0
BBX 10 19 0 -3
BITMAP
FFC0
FFC0
FFC0
FFC0
FFC0
FFC0
FFC0
FFC0
FFC0
FFC0
FFC0
FFC0
FFC0
FFC0
FFC0
FFC0
FFC0
FFC0
FFC0
ENDCHAR
STARTCHAR shade.uni2592
ENCODING 9618
SWIDTH 557 0
DWIDTH 10 0
BBX 10 19 0 -3
BITMAP
5540
0000
AA80
0000
5540
0000
AA80
0000
5540
0000
AA80
0000
5540
0000
AA80
0000
5540
0000
AA80
ENDCHAR
STARTCHAR filledbox.uni25A0
ENCODING 9632
SWIDTH 557 0
DWIDTH 10 0
BBX 7 8 2 1
BITMAP
FE00
FE00
FE00
FE00
FE00
FE00
FE00
FE00
ENDCHAR
STARTCHAR triagup.uni25B2
ENCODING 9650
SWIDTH 557 0
DWIDTH 10 0
BBX 10 9 0 1
BITMAP
0C00
0C00
1E00
1E00
3F00
3F00
7F80
7F80
FFC0
ENDCHAR
STARTCHAR triagright.uni25B6
ENCODING 9654
SWIDTH 557 0
DWIDTH 10 0
BBX 10 9 0 1
BITMAP
C000
F000
FC00
FF00
FFC0
FF00
FC00
F000
C000
ENDCHAR
STARTCHAR triagdn.uni25BC
ENCODING 9660
SWIDTH 557 0
DWIDTH 10 0
BBX 10 9 0 0
BITMAP
FFC0
7F80
7F80
3F00
3F00
1E00
1E00
0C00
0C00
ENDCHAR
STARTCHAR lozenge.uni25CA
ENCODING 9674
SWIDTH 557 0
DWIDTH 10 0
BBX 8 17 1 -3
BITMAP
1800
1800
2400
2400
2400
4200
4200
8100
8100
8100
4200
4200
2400
2400
2400
1800
1800
ENDCHAR
STARTCHAR boldparleft.uni27EA
ENCODING 10218
SWIDTH 557 0
DWIDTH 10 0
BBX 6 16 3 -2
BITMAP
3C00
3800
7800
7800
7000
F000
F000
F000
F000
F000
F000
7000
7800
7800
3800
3C00
ENDCHAR
STARTCHAR boldparright.uni27EB
ENCODING 10219
SWIDTH 557 0
DWIDTH 10 0
BBX 6 16 1 -2
BITMAP
F000
7000
7800
7800
3800
3C00
3C00
3C00
3C00
3C00
3C00
3800
7800
7800
7000
F000
ENDCHAR
STARTCHAR arrowleft.uni2190
ENCODING 8592
SWIDTH 557 0
DWIDTH 10 0
BBX 9 10 0 1
BITMAP
0800
1800
3000
7000
FF80
FF80
7000
3000
1800
0800
ENDCHAR
STARTCHAR arrowup.uni2191
ENCODING 8593
SWIDTH 557 0
DWIDTH 10 0
BBX 8 17 1 -4
BITMAP
1800
3C00
7E00
DB00
1800
1800
1800
1800
1800
1800
1800
1800
1800
1800
1800
1800
1800
ENDCHAR
STARTCHAR arrowright.uni2192
ENCODING 8594
SWIDTH 557 0
DWIDTH 10 0
BBX 9 10 1 1
BITMAP
0800
0C00
0600
0700
FF80
FF80
0700
0600
0C00
0800
ENDCHAR
STARTCHAR arrowdown.uni2193
ENCODING 8595
SWIDTH 557 0
DWIDTH 10 0
BBX 8 17 1 -4
BITMAP
1800
1800
1800
1800
1800
1800
1800
1800
1800
1800
1800
1800
1800
DB00
7E00
3C00
1800
ENDCHAR
STARTCHAR uparrtipleft.uni21B0
ENCODING 8624
SWIDTH 832 0
DWIDTH 10 0
BBX 8 14 1 0
BITMAP
1000
3000
6000
FE00
FF00
6300
3300
1300
0300
0300
0300
0300
0300
0300
ENDCHAR
STARTCHAR uparrtipright.uni21B1
ENCODING 8625
SWIDTH 832 0
DWIDTH 10 0
BBX 8 14 1 0
BITMAP
0800
0C00
0600
7F00
FF00
C600
CC00
C800
C000
C000
C000
C000
C000
C000
ENDCHAR
STARTCHAR carriagereturn.uni21B5
ENCODING 8629
SWIDTH 557 0
DWIDTH 10 0
BBX 8 14 1 -1
BITMAP
0300
0300
0300
0300
0300
0300
1300
3300
6300
FF00
FE00
6000
3000
1000
ENDCHAR
STARTCHAR Sigma.uni03A3
ENCODING 931
SWIDTH 557 0
DWIDTH 10 0
BBX 8 13 1 0
BITMAP
FF00
FF00
E000
7000
3800
1C00
0C00
1C00
3800
7000
E000
FF00
FF00
ENDCHAR
STARTCHAR theta.uni03B8
ENCODING 952
SWIDTH 832 0
DWIDTH 10 0
BBX 8 13 1 0
BITMAP
3C00
7E00
6600
E700
E700
FF00
FF00
E700
E700
E700
6600
7E00
3C00
ENDCHAR
STARTCHAR sigma.uni03C3
ENCODING 963
SWIDTH 832 0
DWIDTH 10 0
BBX 8 10 1 0
BITMAP
3F00
7F00
EC00
E600
E700
E700
E700
E700
7E00
3C00
ENDCHAR
STARTCHAR exponent.uni1D07
ENCODING 7431
SWIDTH 557 0
DWIDTH 10 0
BBX 6 10 2 1
BITMAP
FC00
FC00
C000
C000
FC00
FC00
C000
C000
FC00
FC00
ENDCHAR
STARTCHAR mesangle.uni2221
ENCODING 8737
SWIDTH 557 0
DWIDTH 10 0
BBX 10 12 0 0
BITMAP
0300
0700
0600
0E00
0C00
1C00
1C00
3E00
3300
7300
7FC0
FFC0
ENDCHAR
STARTCHAR pi.uni03C0
ENCODING 960
SWIDTH 557 0
DWIDTH 10 0
BBX 10 10 0 0
BITMAP
FF80
FF80
7700
7700
7700
7700
7700
7700
77C0
73C0
ENDCHAR
STARTCHAR triagleft.uni25C0
ENCODING 9664
SWIDTH 588 0
DWIDTH 10 0
BBX 10 9 0 1
BITMAP
00C0
03C0
0FC0
3FC0
FFC0
3FC0
0FC0
03C0
00C0
ENDCHAR
STARTCHAR germandblS.uni1E9E
ENCODING 7838
SWIDTH 588 0
DWIDTH 10 0
BBX 8 14 1 0
BITMAP
1F00
7F00
7300
E600
E600
EC00
EE00
EF00
E300
E300
E300
E300
EF00
EE00
ENDCHAR
STARTCHAR Gamma.uni0393
ENCODING 915
SWIDTH 588 0
DWIDTH 10 0
BBX 8 13 1 0
BITMAP
FF00
FF00
E000
E000
E000
E000
E000
E000
E000
E000
E000
E000
E000
ENDCHAR
ENDFONT
